<svg viewBox="0 0 3 3" fill="none" xmlns="http://www.w3.org/2000/svg">
  <path
     fill-rule="evenodd"
     clip-rule="evenodd"
     d="m 1.4999891,0.1068895 c -0.78927877,0 -1.42855921,0.63928034 -1.42855921,1.4285591 0,0.6321372 0.40892501,1.1660609 0.97677731,1.355345 0.071428,0.012508 0.098213,-0.030358 0.098213,-0.067858 0,-0.033927 -0.00179,-0.1464262 -0.00179,-0.2660681 C 0.78570872,2.6229373 0.69285215,2.4693679 0.66428122,2.3890117 0.64822301,2.3479411 0.5785668,2.2211561 0.51785501,2.1872286 0.4678563,2.160454 0.39642816,2.0943711 0.51606939,2.0925861 0.62856813,2.0908005 0.70892438,2.1961567 0.73571197,2.2390123 0.86428195,2.4550817 1.0696376,2.3943699 1.1517798,2.3568692 1.1642876,2.2640117 1.2017785,2.2015149 1.2428491,2.1657992 0.92499407,2.1300835 0.59285471,2.0068717 0.59285471,1.4604482 c 0,-0.1553543 0.0553569,-0.2839275 0.14642621,-0.3839253 -0.0142993,-0.035712 -0.064285,-0.18214188 0.0142993,-0.37856811 0,0 0.11964189,-0.0375007 0.39285378,0.14642621 0.1142837,-0.032149 0.2357138,-0.0482137 0.3571397,-0.0482137 0.1214268,0 0.2428537,0.0160582 0.3571397,0.0482137 0.2732112,-0.18571184 0.3928537,-0.14642621 0.3928537,-0.14642621 0.078571,0.19642819 0.028566,0.34285441 0.014299,0.37856811 0.091069,0.1000007 0.1464262,0.2267825 0.1464262,0.3839253 0,0.5482094 -0.3339257,0.6696369 -0.6517801,0.705351 0.051787,0.044644 0.096428,0.1303549 0.096428,0.2642831 0,0.19107 -0.00179,0.3446397 -0.00179,0.3928534 0,0.037501 0.026775,0.082141 0.098213,0.067858 0.2835986,-0.09574 0.5300238,-0.2779961 0.704608,-0.5211381 0.1745851,-0.2431273 0.2685273,-0.534881 0.2685989,-0.8342069 0,-0.78927873 -0.63928,-1.42855907 -1.4285588,-1.42855907 z"
     stroke-linejoin="round"
     style="stroke-width:0.142856" />
</svg>
