<svg
   width="100"
   height="100"
   viewBox="0 0 5 5"
   enable-background="new 0 0 40 40"
   xml:space="preserve"
   sodipodi:docname="linkedin-logo.svg"
   inkscape:version="1.2.2 (b0a8486541, 2022-12-01)"
   xmlns:inkscape="http://www.inkscape.org/namespaces/inkscape"
   xmlns:sodipodi="http://sodipodi.sourceforge.net/DTD/sodipodi-0.dtd"
   xmlns="http://www.w3.org/2000/svg"
   xmlns:svg="http://www.w3.org/2000/svg"><defs
   id="defs615">
	
	
	
</defs><sodipodi:namedview
   id="namedview613"
   pagecolor="#ffffff"
   bordercolor="#cccccc"
   borderopacity="1"
   inkscape:showpageshadow="0"
   inkscape:pageopacity="1"
   inkscape:pagecheckerboard="0"
   inkscape:deskcolor="#d1d1d1"
   showgrid="false"
   inkscape:zoom="5.7699913"
   inkscape:cx="76.343269"
   inkscape:cy="45.494003"
   inkscape:window-width="1920"
   inkscape:window-height="1003"
   inkscape:window-x="0"
   inkscape:window-y="40"
   inkscape:window-maximized="1"
   inkscape:current-layer="Layer_1" />






























































































<path
   d="m 3.7824691,4.7774222 c -0.055355,0 -0.1004279,-0.044916 -0.1004279,-0.1002692 v -1.52397 c 0,-0.5510079 -0.282779,-0.5510079 -0.3893745,-0.5510079 -0.2970129,0 -0.4474171,0.1853563 -0.4474171,0.5510079 v 1.524128 c 0,0.055353 -0.044916,0.1002693 -0.1002693,0.1002693 h -0.86178 c -0.055353,0 -0.1002693,-0.044916 -0.1002693,-0.1002693 V 1.7740819 c 0,-0.055355 0.044916,-0.1002692 0.1002693,-0.1002692 h 0.8619381 c 0.055353,0 0.1002693,0.044916 0.1002693,0.1002692 V 1.882259 l 0.051875,-0.04286 c 0.2040181,-0.1687503 0.4474168,-0.2543114 0.723395,-0.2543114 0.3411378,0 0.628345,0.1089676 0.8304656,0.3153586 0.2135076,0.2179359 0.3262712,0.5424675 0.3262712,0.9383264 v 1.8385378 c 0,0.055353 -0.045073,0.1002692 -0.1004279,0.1002692 H 3.7824691 Z M 3.2928251,2.4013198 c 0.2204663,0 0.5902298,0.097739 0.5902298,0.7518632 V 4.5768833 H 4.5765592 V 2.8387732 c 0,-0.6691486 -0.3484127,-1.0528297 -0.9558814,-1.0528297 -0.5424674,0 -0.777484,0.4096182 -0.7872896,0.4270152 -0.017713,0.032106 -0.051241,0.052033 -0.087775,0.052033 -0.00823,0 -0.016606,-0.00127 -0.025146,-0.00333 -0.044599,-0.011234 -0.075755,-0.050926 -0.075755,-0.096473 V 1.8746677 H 1.9836279 V 4.5770414 H 2.6447107 V 3.153183 c 0,-0.470824 0.2422917,-0.7518632 0.6481144,-0.7518632 z"
   id="path604"
   style="display:inline;stroke-width:0.158155"
   inkscape:label="n" /><path
   d="m 0.40920704,4.7774222 c -0.0553532,0 -0.10042791,-0.044916 -0.10042791,-0.1002692 V 1.7740819 c 0,-0.055355 0.0450734,-0.1002692 0.10042791,-0.1002692 H 1.3083113 c 0.055355,0 0.1002693,0.044916 0.1002693,0.1002692 v 2.9030709 c 0,0.055354 -0.044916,0.1002693 -0.1002693,0.1002693 z M 0.50963468,4.5768833 H 1.2078837 V 1.8745096 H 0.50963468 Z"
   id="path606"
   style="display:inline;stroke-width:0.158155"
   inkscape:label="i" /><path
   id="path608"
   d="m 0.85472189,0.22259333 c -0.34857019,0 -0.63213628,0.28515501 -0.63213628,0.6357813 0,0.35046807 0.28356609,0.63561147 0.63213628,0.63561147 0.34809581,0 0.63151861,-0.2851471 0.63151861,-0.63545695 0,-0.3506263 -0.2834228,-0.63593582 -0.63151861,-0.63593582 z m 0,0.20022511 c 0.23770461,0 0.43081101,0.19547927 0.43096911,0.43555619 0,0.24007707 -0.1932645,0.43507727 -0.43096911,0.43507727 -0.23786271,0 -0.43127789,-0.1950002 -0.43127789,-0.43507727 0,-0.24023504 0.19341518,-0.43555619 0.43127789,-0.43555619 z"
   inkscape:label="dot"
   style="display:inline;stroke-width:0.158155" />
</svg>
