<?xml version="1.0" encoding="UTF-8" standalone="no"?>
<svg
   id="logo"
   version="1.1"
   viewBox="0 0 50 50"
   sodipodi:docname="logo.svg"
   width="50"
   height="50"
   inkscape:version="1.2.2 (b0a8486541, 2022-12-01)"
   xmlns:inkscape="http://www.inkscape.org/namespaces/inkscape"
   xmlns:sodipodi="http://sodipodi.sourceforge.net/DTD/sodipodi-0.dtd"
   xmlns="http://www.w3.org/2000/svg"
   xmlns:svg="http://www.w3.org/2000/svg">
  <defs
     id="defs7" />
  <sodipodi:namedview
     id="namedview5"
     pagecolor="#ffffff"
     bordercolor="#cccccc"
     borderopacity="1"
     inkscape:showpageshadow="0"
     inkscape:pageopacity="1"
     inkscape:pagecheckerboard="0"
     inkscape:deskcolor="#d1d1d1"
     showgrid="false"
     inkscape:zoom="16.32"
     inkscape:cx="18.41299"
     inkscape:cy="25.520833"
     inkscape:window-width="1920"
     inkscape:window-height="1003"
     inkscape:window-x="0"
     inkscape:window-y="40"
     inkscape:window-maximized="1"
     inkscape:current-layer="logo" />
  <g
     id="g956"
     transform="scale(1.1111111)">
    <circle
       style="fill:#010000;stroke-width:0"
       id="path896"
       cx="22.5"
       cy="22.5"
       r="22.5"
       inkscape:label="bg" />
    <path
       d="m 37.460813,8.304479 c -2.52685,0 -4.134884,0.3259134 -4.824042,0.9777792 -2.362807,1.7926588 -5.414647,4.8891498 -9.155834,9.2894738 -3.741061,4.367579 -7.006216,8.539577 -9.795528,12.515804 -2.756567,3.97648 -4.1348821,6.453926 -4.1348821,7.431832 0.1968987,0.68447 0.6563481,1.026737 1.3783151,1.026737 0.328162,0 0.59055,-0.146736 0.787454,-0.440083 0.984493,-1.368941 3.757528,-3.813643 8.319169,-7.33366 0.393797,-0.293348 0.639945,-0.439875 0.738433,-0.439875 0.09845,0 0.147762,0.03245 0.147762,0.09764 0,0.619286 -0.361014,1.613545 -1.08298,2.982486 -0.721965,1.336325 -1.08298,2.297763 -1.08298,2.884443 0,1.727487 0.584387,2.351092 1.673587,2.591325 0.75889,0.167371 1.112241,0.08439 1.919711,-0.244603 1.663326,-0.724057 6.228134,-4.931839 9.985535,-8.028457 0.297653,-0.240284 0.548083,-0.458387 0.830903,-0.663443 -10e-4,-0.0048 -0.0021,-0.0095 -0.0033,-0.01424 -0.0011,-0.0049 -0.0022,-0.0099 -0.0036,-0.01486 -0.0013,-0.0049 -0.0027,-0.0098 -0.0041,-0.01466 -0.0014,-0.0049 -0.003,-0.0098 -0.0046,-0.01466 -0.0016,-0.0049 -0.0031,-0.0097 -0.0048,-0.01445 -0.0017,-0.0049 -0.0036,-0.0097 -0.0054,-0.01444 -0.0018,-0.0048 -0.0037,-0.0095 -0.0056,-0.01424 -0.0019,-0.0047 -0.0038,-0.0094 -0.0058,-0.01403 -0.0021,-0.0047 -0.0042,-0.0094 -0.0065,-0.01403 -0.0021,-0.0046 -0.0043,-0.0093 -0.0067,-0.01383 -0.0022,-0.0045 -0.0047,-0.0089 -0.007,-0.01342 -0.0025,-0.0045 -0.005,-0.009 -0.0075,-0.01342 -0.0025,-0.0045 -0.005,-0.0088 -0.0077,-0.01321 -0.0027,-0.0043 -0.0054,-0.0087 -0.0081,-0.013 -0.0028,-0.0043 -0.0056,-0.0086 -0.0085,-0.01281 -0.0029,-0.0042 -0.0058,-0.0085 -0.0087,-0.01258 -0.003,-0.0041 -0.0061,-0.0083 -0.0091,-0.01239 -0.003,-0.0041 -0.0062,-0.0081 -0.0094,-0.01218 -0.0033,-0.004 -0.0065,-0.0079 -0.0098,-0.01177 -0.0032,-0.004 -0.0066,-0.0079 -0.0099,-0.01176 -0.0033,-0.0039 -0.0067,-0.0076 -0.01015,-0.01135 -0.0036,-0.0036 -0.007,-0.0074 -0.0106,-0.01093 -0.0036,-0.0036 -0.0072,-0.0074 -0.01104,-0.01093 -0.0037,-0.0036 -0.0075,-0.007 -0.01122,-0.01049 -0.0037,-0.0035 -0.0076,-0.0068 -0.01142,-0.01015 -0.0038,-0.0035 -0.0077,-0.0068 -0.01165,-0.01015 -0.0039,-0.0032 -0.0078,-0.0065 -0.01185,-0.0095 -0.004,-0.0032 -0.0081,-0.0065 -0.01226,-0.0095 -0.0041,-0.003 -0.0083,-0.006 -0.01247,-0.0089 -0.0041,-0.003 -0.0084,-0.006 -0.01267,-0.0089 -0.0042,-0.0028 -0.0086,-0.0056 -0.01289,-0.0083 -0.0043,-0.0028 -0.0087,-0.0055 -0.01309,-0.008 -0.0043,-0.0026 -0.0088,-0.0051 -0.0133,-0.0076 -0.0045,-0.0026 -0.0089,-0.0049 -0.01351,-0.0075 -0.0045,-0.0025 -0.0091,-0.0048 -0.01372,-0.007 -0.0045,-0.0022 -0.0091,-0.0045 -0.01372,-0.0066 -0.0048,-0.0021 -0.0094,-0.0044 -0.01413,-0.0064 -0.0048,-0.002 -0.0094,-0.004 -0.01413,-0.006 -0.0048,-0.0019 -0.0095,-0.0038 -0.01434,-0.0056 -0.0049,-0.0018 -0.0097,-0.0036 -0.01454,-0.0051 -0.0049,-0.0017 -0.0097,-0.0032 -0.01455,-0.0048 -0.0049,-0.0016 -0.0098,-0.0031 -0.01476,-0.0046 -0.005,-0.0014 -0.0099,-0.0029 -0.01497,-0.0041 -0.0049,-0.0013 -0.0098,-0.0026 -0.01476,-0.0037 -0.005,-0.0011 -0.01015,-0.0022 -0.01517,-0.0033 -0.005,-0.001 -0.01015,-0.002 -0.01517,-0.0029 -0.005,-8.86e-4 -0.01015,-0.0017 -0.01517,-0.0025 -0.005,-8.23e-4 -0.01015,-0.0016 -0.01517,-0.0022 -0.005,-5.98e-4 -0.01026,-0.0011 -0.01538,-0.0017 -0.005,-5.6e-4 -0.01015,-0.001 -0.01517,-0.0015 -0.005,-3.99e-4 -0.01026,-6.96e-4 -0.01538,-0.001 -0.0051,-2.74e-4 -0.01026,-4.81e-4 -0.01538,-6e-4 -0.0051,-1.34e-4 -0.01026,-2.03e-4 -0.01538,-2.07e-4 -3.010924,1.50866 -5.777879,2.932515 -8.114593,4.176622 -0.393797,0.195561 -0.656159,0.29332 -0.787455,0.29332 -0.131264,0 -0.197019,-0.08142 -0.197019,-0.2444 0,-0.488909 0.492309,-1.499286 1.476803,-3.031255 0.492246,-0.945225 1.952518,-3.12911 4.380942,-6.551464 0.06563,-0.09779 0.09851,-0.211864 0.09851,-0.342242 0,-0.423722 -0.410328,-0.684533 -1.230742,-0.782325 -0.951686,0 -1.5751,0.146737 -1.870436,0.440078 -0.951685,0.619285 -2.395743,1.662313 -4.33192,3.129045 -1.936179,1.434115 -2.969884,2.151076 -3.101179,2.151076 l -0.04904,-0.04872 c 0,-0.09779 0.09842,-0.309821 0.295323,-0.635766 0.229713,-0.358531 0.410119,-0.602819 0.541382,-0.733176 2.559657,-3.487527 8.565544,-9.761959 18.016525,-18.823425 0.229713,-0.2281545 0.344573,-0.4563223 0.344573,-0.68447 0,-0.2281556 -0.197052,-0.3912199 -0.590848,-0.4890045 z"
       id="path2"
       style="fill:#ffffff;fill-opacity:1;stroke-width:0.633359"
       inkscape:label="h" />
    <circle
       style="fill:#ffffff;fill-opacity:1;stroke-width:0"
       id="path951"
       cx="14.7771"
       cy="12.513844"
       r="4.2100587"
       inkscape:label="dot" />
  </g>
</svg>
